<svg xmlns="http://www.w3.org/2000/svg" width="1024" height="1024" viewBox="0 0 1024 1024">
  <defs>
    <radialGradient id="r" cx="50%" cy="50%" r="60%">
      <stop offset="0%" stop-color="#22c55e"/>
      <stop offset="100%" stop-color="#0ea5e9"/>
    </radialGradient>
  </defs>
  <rect width="1024" height="1024" rx="180" fill="url(#r)"/>
  <g fill="#fff" opacity="0.95" transform="translate(220,180)">
    <path d="M220 0h68a12 12 0 0 1 12 12v366a110 110 0 1 1-44 88V44a44 44 0 0 0-44-44Z"/>
    <path d="M60 92h68a12 12 0 0 1 12 12v274a110 110 0 1 1-44 88V136a44 44 0 0 0-44-44Z"/>
  </g>
</svg>
